<?xml version="1.0" encoding="UTF-8"?>
<!-- Generator: Adobe Illustrator 15.1.0, SVG Export Plug-In . SVG Version: 6.00 Build 0)  -->
<!DOCTYPE svg PUBLIC "-//W3C//DTD SVG 1.1//EN" "http://www.w3.org/Graphics/SVG/1.1/DTD/svg11.dtd">
<svg version="1.1" id="Layer_1" xmlns="http://www.w3.org/2000/svg" xmlns:xlink="http://www.w3.org/1999/xlink" x="0px" y="0px" width="24px" height="24px" viewBox="0 0 24 24" enable-background="new 0 0 24 24" xml:space="preserve">
<path fill="#333333" d="M4,13c0,4.4,3.6,8,8,8c4.4,0,8-3.6,8-8h-2c0,3.3-2.7,6-6,6s-6-2.7-6-6s2.7-6,6-6v4l5-5l-5-5v4  C7.6,5,4,8.6,4,13z M10.8,16H10v-3.3L9,13v-0.7l1.8-0.6h0.1V16H10.8z M15.1,14.2c0,0.3,0,0.6-0.1,0.8l-0.3,0.6  c0,0-0.3,0.301-0.5,0.301S13.8,16,13.6,16C13.4,16,13.2,16,13,15.9c-0.2-0.102-0.3-0.2-0.5-0.301s-0.2-0.301-0.3-0.601  c-0.1-0.3-0.1-0.5-0.1-0.8v-0.7c0-0.3,0-0.601,0.1-0.8l0.3-0.6c0,0,0.3-0.3,0.5-0.3s0.4-0.1,0.6-0.1c0.2,0,0.4,0,0.602,0.1  c0.199,0.1,0.3,0.2,0.5,0.3c0.199,0.1,0.199,0.3,0.3,0.6c0.101,0.3,0.101,0.5,0.101,0.8V14.2H15.1z M14.3,13.4v-0.5  c0,0-0.1-0.2-0.1-0.301S14.1,12.499,14,12.399s-0.2-0.1-0.3-0.1c-0.101,0-0.2,0-0.3,0.1L13.2,12.6c0,0-0.101,0.199-0.101,0.301v2  c0,0,0.101,0.199,0.101,0.3c0,0.1,0.1,0.1,0.2,0.2c0.1,0.1,0.199,0.1,0.3,0.1c0.1,0,0.2,0,0.3-0.1l0.2-0.2c0,0,0.1-0.2,0.1-0.3V13.4  z"/>
</svg>